<svg
  version="1.1"
  baseProfile="full"
  width="100%" height="100%"
  xmlns="http://www.w3.org/2000/svg"
  viewBox="0 0 1400 800"
>

  <!-- 大圆角正方形 -->
  <rect x="1300" y="400" rx="40" ry="40" width="300" height="300" stroke="rgb(129, 201, 149)" fill="#24C138">
    <animateTransform attributeType="XML" attributeName="transform" begin="0s" dur="35s" type="rotate" from="0 1450 550" to="360 1450 550" repeatCount="indefinite" />
  </rect>

  <!-- 大半圆 -->
  <path d="M 100 350 A 150 150 0 1 1 400 350 Q400 370 380 370 L 250 370 L 120 370 Q100 370 100 350" stroke="rgb(253, 214, 99)" fill="#FEB429">
    <animateMotion path="M 800 -200 L 800 -300 L 800 -200" dur="20s" begin="0s" repeatCount="indefinite" />
    <animateTransform attributeType="XML" attributeName="transform" begin="0s" dur="30s" type="rotate" values="0 210 530 ; -30 210 530 ; 0 210 530" keyTimes="0 ; 0.5 ; 1" repeatCount="indefinite" />
  </path>

  <!-- 右侧小圆点 -->
  <circle cx="200" cy="150" r="20" stroke="#1a73e8" fill="#1a73e8">
    <animateMotion path="M 0 0 L 40 20 Z" dur="5s" repeatCount="indefinite" />
  </circle>

  <!-- 三角形 -->
  <path d="M 165 580 L 270 580 Q275 578 270 570 L 223 483 Q220 480 217 483 L 165 570 Q160 578 165 580" stroke="rgb(238, 103, 92)" fill="#FF544D">
    <animateTransform attributeType="XML" attributeName="transform" begin="0s" dur="35s" type="rotate" from="0 210 530" to="360 210 530" repeatCount="indefinite" />
  </path>

  <circle cx="1200" cy="600" r="30" stroke="rgb(241, 243, 244)" fill="#FF2291">
    <animateMotion path="M 0 0 L -20 40 Z" dur="9s" repeatCount="indefinite" />
  </circle>

  <path d="M 100 350 A 40 40 0 1 1 180 350 L 180 430 A 40 40 0 1 1 100 430 Z" stroke="rgb(241, 243, 244)" fill="rgb(241, 243, 244)">
    <animateMotion path="M 140 390 L 180 360 L 140 390" dur="20s" begin="0s" repeatCount="indefinite" />
    <animateTransform attributeType="XML" attributeName="transform" begin="0s" dur="30s" type="rotate" values="0 140 390; -60 140 390; 0 140 390" keyTimes="0 ; 0.5 ; 1" repeatCount="indefinite" />
  </path>

  <!-- 小圆角正方形 -->
  <rect x="400" y="600" rx="40" ry="40" width="100" height="100" stroke="rgb(129, 201, 149)" fill="#24C138">
    <animateTransform attributeType="XML" attributeName="transform" begin="0s" dur="35s" type="rotate" from="-30 550 750" to="330 550 750" repeatCount="indefinite" />
  </rect>

  <g style="" transform="matrix(1, 0, 0, 1.071424, 0, -26.885897)">
    <path d="M 967.573 434.89 C 966.129 434.89 964.696 434.801 963.262 434.633 C 958.784 434.089 954.595 432.732 950.806 430.604 L 940.984 425.05 L 929.984 418.832 C 926.95 417.121 925.14 414.259 925.151 411.18 C 925.151 408.101 926.973 405.25 930.018 403.537 L 939.006 398.498 L 943.796 395.804 L 946.696 394.182 C 947.662 393.646 948.929 393.904 949.529 394.756 C 950.129 395.617 949.84 396.746 948.884 397.28 L 945.984 398.903 L 941.196 401.606 L 932.206 406.645 C 930.34 407.695 929.274 409.348 929.262 411.189 C 929.262 413.031 930.329 414.685 932.184 415.735 L 943.184 421.951 L 953.006 427.505 C 956.284 429.347 959.918 430.524 963.818 431 C 968.462 431.564 973.206 431.068 977.562 429.574 C 978.974 429.089 980.362 428.485 981.662 427.782 L 1002.084 416.823 C 1002.629 416.526 1003.106 416.179 1003.54 415.784 C 1004.695 414.674 1005.262 413.259 1005.129 411.773 C 1004.996 410.289 1004.14 408.942 1002.751 407.982 C 1002.629 407.903 1002.496 407.814 1002.329 407.724 L 981.806 395.656 C 979.984 394.577 977.973 393.696 975.84 393.042 C 971.506 391.706 966.795 391.359 962.229 392.054 C 959.574 392.439 957.018 393.181 954.606 394.231 C 953.584 394.676 952.351 394.309 951.851 393.399 C 951.351 392.488 951.762 391.39 952.784 390.944 C 955.551 389.726 958.496 388.885 961.55 388.429 C 966.795 387.647 972.196 388.032 977.185 389.577 C 979.651 390.34 981.974 391.35 984.084 392.607 L 1004.618 404.685 C 1004.84 404.815 1005.04 404.943 1005.207 405.053 C 1005.218 405.061 1005.229 405.061 1005.24 405.071 C 1007.585 406.665 1009.006 408.942 1009.24 411.477 C 1009.473 413.972 1008.484 416.456 1006.54 418.307 L 1006.518 418.328 C 1005.829 418.962 1005.084 419.496 1004.24 419.961 C 1004.228 419.961 1004.228 419.971 1004.218 419.971 L 983.796 430.921 C 982.284 431.732 980.684 432.426 979.051 432.99 C 975.396 434.247 971.485 434.89 967.573 434.89 Z" fill="#0D6AFF" style=""/>
    <path d="M 942.073 425.337 C 941.506 425.337 940.94 425.129 940.54 424.723 C 939.784 423.971 939.862 422.803 940.706 422.14 C 943.918 419.585 945.695 416.159 945.695 412.476 C 945.695 408.18 943.173 404.111 938.951 401.586 C 938.006 401.022 937.751 399.883 938.384 399.042 C 939.018 398.2 940.295 397.972 941.24 398.538 C 946.606 401.745 949.806 406.952 949.806 412.476 C 949.806 417.219 947.54 421.625 943.44 424.872 C 943.051 425.188 942.562 425.337 942.073 425.337 Z M 1019.451 430.407 C 1017.996 430.407 1016.552 429.891 1015.44 428.891 L 1003.574 418.328 C 1002.774 417.615 1002.774 416.447 1003.574 415.735 C 1004.374 415.021 1005.684 415.021 1006.484 415.735 L 1018.362 426.307 C 1019.218 427.079 1020.096 426.634 1020.352 426.487 C 1020.607 426.327 1021.396 425.743 1020.896 424.763 L 1015.096 413.348 C 1014.151 411.507 1014.196 409.397 1015.206 407.576 L 1020.296 398.398 C 1020.84 397.409 1020.062 396.804 1019.807 396.647 C 1019.551 396.488 1018.662 396.023 1017.795 396.795 L 1005.429 407.804 C 1004.629 408.516 1003.318 408.516 1002.518 407.804 C 1001.718 407.091 1001.718 405.923 1002.518 405.21 L 1014.874 394.191 C 1016.885 392.399 1019.896 392.182 1022.196 393.657 C 1024.496 395.131 1025.229 397.745 1023.974 400.013 L 1018.884 409.19 C 1018.429 410.021 1018.406 410.982 1018.829 411.824 L 1024.629 423.239 C 1025.784 425.515 1024.973 428.079 1022.673 429.495 C 1021.684 430.109 1020.562 430.407 1019.451 430.407 Z M 976.496 393.132 C 976.196 393.132 975.896 393.072 975.606 392.953 C 974.584 392.518 974.151 391.419 974.64 390.508 C 974.973 389.884 975.418 389.31 975.962 388.795 L 983.573 381.677 C 984.051 381.233 984.14 380.786 983.828 380.441 C 983.54 380.113 982.94 379.916 982.107 380.34 L 965.596 388.737 C 964.718 389.181 964.096 389.884 963.874 390.666 C 963.596 391.646 962.484 392.251 961.374 392.003 C 960.274 391.755 959.596 390.766 959.873 389.775 C 960.362 388.032 961.696 386.498 963.54 385.548 L 980.062 377.153 C 982.54 375.886 985.418 376.301 987.062 378.173 C 988.64 379.965 988.429 382.45 986.551 384.202 L 978.94 391.32 C 978.706 391.538 978.496 391.805 978.351 392.082 C 977.995 392.747 977.262 393.132 976.496 393.132 Z M 982.552 446.425 C 981.718 446.425 980.896 446.237 980.118 445.851 L 964.807 438.227 C 962.673 437.167 961.395 435.068 961.473 432.771 C 961.506 431.762 962.462 430.97 963.596 431 C 964.728 431.03 965.629 431.881 965.584 432.89 C 965.551 433.821 966.018 434.643 966.807 435.039 L 982.118 442.672 C 982.751 442.989 983.306 442.505 983.529 442.285 C 983.862 441.939 984.295 441.186 983.762 440.583 L 976.673 432.426 C 975.973 431.623 976.14 430.475 977.04 429.851 C 977.94 429.228 979.229 429.376 979.929 430.178 L 987.018 438.336 C 988.618 440.188 988.462 442.791 986.64 444.672 C 985.529 445.82 984.04 446.425 982.552 446.425 Z" fill="#0D6AFF" style=""/>
    <path d="M 936.651 409.33 M 933.851 409.33 C 933.851 411.249 936.184 412.449 938.05 411.489 C 938.918 411.043 939.451 410.22 939.451 409.33 C 939.451 407.408 937.118 406.208 935.251 407.168 C 934.385 407.613 933.851 408.437 933.851 409.33 Z" fill="#0D6AFF" style=""/>
    <path d="M 963.818 403.279 C 963.318 403.279 962.818 403.121 962.418 402.794 C 961.584 402.101 961.54 400.944 962.307 400.2 C 963.296 399.25 963.407 398.715 963.374 398.607 C 963.273 398.31 962.318 397.864 961.662 397.735 C 960.551 397.517 959.851 396.537 960.095 395.548 C 960.34 394.557 961.44 393.933 962.551 394.151 C 962.94 394.231 966.418 394.983 967.306 397.508 C 967.873 399.141 967.218 400.884 965.329 402.696 C 964.918 403.081 964.373 403.279 963.818 403.279 Z" fill="#FF2291" style=""/>
    <path d="M 964.94 415.486 C 964.384 415.486 963.829 415.289 963.418 414.893 C 962.651 414.15 962.706 412.981 963.551 412.299 C 964.618 411.427 964.784 410.903 964.751 410.793 C 964.674 410.497 963.773 409.982 963.118 409.803 C 962.028 409.507 961.428 408.477 961.762 407.507 C 962.096 406.537 963.251 406.002 964.34 406.3 C 964.728 406.408 968.118 407.408 968.774 409.991 C 969.196 411.655 968.373 413.348 966.329 415.011 C 965.929 415.327 965.44 415.486 964.94 415.486 Z" fill="#FF2291" style=""/>
    <path d="M 964.628 427.684 C 963.996 427.684 963.384 427.426 962.973 426.94 C 962.296 426.13 962.484 424.98 963.396 424.376 C 964.562 423.605 964.784 423.1 964.773 422.981 C 964.728 422.674 963.884 422.08 963.262 421.842 C 962.218 421.447 961.729 420.367 962.174 419.436 C 962.618 418.507 963.829 418.07 964.873 418.466 C 965.24 418.605 968.507 419.911 968.851 422.546 C 969.074 424.248 968.062 425.852 965.84 427.317 C 965.484 427.565 965.062 427.684 964.628 427.684 Z" fill="#FF2291" style=""/>
    <path d="M 977.528 410.616 C 977.028 410.616 976.529 410.457 976.129 410.13 C 975.296 409.438 975.25 408.28 976.018 407.536 C 977.006 406.587 977.118 406.051 977.084 405.943 C 976.996 405.665 976.118 405.23 975.362 405.071 L 975.373 405.071 L 976.262 401.487 C 976.651 401.567 980.128 402.319 981.018 404.843 C 981.584 406.477 980.929 408.22 979.04 410.032 C 978.629 410.418 978.084 410.616 977.528 410.616 Z" fill="#FF2291" style=""/>
    <path d="M 978.662 422.822 C 978.106 422.822 977.551 422.624 977.14 422.228 C 976.373 421.485 976.428 420.318 977.273 419.634 C 978.34 418.762 978.507 418.238 978.473 418.13 C 978.396 417.832 977.495 417.318 976.84 417.14 C 975.751 416.842 975.152 415.813 975.484 414.842 C 975.818 413.873 976.973 413.328 978.062 413.635 C 978.451 413.744 981.84 414.744 982.496 417.328 C 982.918 418.991 982.096 420.684 980.051 422.347 C 979.651 422.663 979.162 422.822 978.662 422.822 Z" fill="#FF2291" style=""/>
    <animateMotion path="M 0 0 L 120 15 Z" dur="10s" repeatCount="indefinite" />
  </g>
</svg>
